<svg width="565" height="575" viewBox="0 0 565 575" fill="none" xmlns="http://www.w3.org/2000/svg">
<path d="M0 0C72.7348 8.30657 145.66 16.42 216.115 43.851C286.761 71.282 355.128 117.644 388.172 179.847C421.026 242.05 418.557 320.093 442.106 388.477C465.655 456.861 515.221 515.78 564.977 574.699H0V0Z" fill="#DFF5FF"/>
<path d="M0 95.8154C60.5807 102.77 121.351 109.531 180.223 132.326C238.904 155.12 295.877 193.949 323.413 245.72C350.95 297.491 348.861 362.398 368.422 419.385C388.172 476.372 429.382 525.632 470.782 574.699H0V95.8154Z" fill="#C5EEFF"/>
<path d="M0 191.631C48.6165 197.04 97.043 202.449 144.14 220.8C191.237 238.959 236.815 270.06 258.655 311.593C280.684 352.933 278.975 404.897 294.737 450.487C310.5 496.076 343.544 535.484 376.588 574.699H0V191.631Z" fill="#A9E7FF"/>
<path d="M0 287.446C36.4623 291.503 72.7348 295.56 108.058 309.275C143.381 322.991 177.564 346.172 194.086 377.273C210.608 408.375 209.279 447.396 221.053 481.588C232.827 515.78 257.705 545.143 282.393 574.699H0V287.446Z" fill="#89DFFE"/>
<path d="M0 383.068C24.3082 385.966 48.6165 388.67 71.9752 397.75C95.5238 406.829 118.313 422.283 129.327 443.146C140.342 463.816 139.582 489.895 147.369 512.69C155.155 535.484 171.677 554.995 188.389 574.699H0V383.068Z" fill="#62D8FE"/>
<path d="M0 478.884C12.1541 480.236 24.3082 481.588 36.0825 486.224C47.8568 490.861 59.2513 498.588 64.7586 508.826C70.266 519.258 69.6963 532.2 73.6843 543.598C77.6724 554.995 85.8384 564.847 94.1944 574.699H0V478.884Z" fill="#47D4FE"/>
</svg>
