<svg width="1336" height="656" viewBox="0 0 1336 656" fill="none" xmlns="http://www.w3.org/2000/svg">
<mask id="mask0_1519_43968" style="mask-type:alpha" maskUnits="userSpaceOnUse" x="-1" y="-681" width="1338" height="1338">
<path d="M121.455 -72.7271H0.000488281V48.7277H121.455V-72.7271Z" stroke="white" stroke-opacity="0.05"/>
<path d="M242.912 -72.7271H121.457V48.7277H242.912V-72.7271Z" stroke="white" stroke-opacity="0.05"/>
<path d="M364.366 -72.7271H242.911V48.7277H364.366V-72.7271Z" stroke="white" stroke-opacity="0.05"/>
<path d="M485.82 -72.7271H364.365V48.7277H485.82V-72.7271Z" stroke="white" stroke-opacity="0.05"/>
<path d="M607.273 -72.7271H485.818V48.7277H607.273V-72.7271Z" stroke="white" stroke-opacity="0.05"/>
<path d="M728.727 -72.7271H607.272V48.7277H728.727V-72.7271Z" stroke="white" stroke-opacity="0.05"/>
<path d="M850.182 -72.7271H728.728V48.7277H850.182V-72.7271Z" stroke="white" stroke-opacity="0.05"/>
<path d="M971.636 -72.7271H850.181V48.7277H971.636V-72.7271Z" stroke="white" stroke-opacity="0.05"/>
<path d="M1093.09 -72.7271H971.638V48.7277H1093.09V-72.7271Z" stroke="white" stroke-opacity="0.05"/>
<path d="M1214.55 -72.7271H1093.09V48.7277H1214.55V-72.7271Z" stroke="white" stroke-opacity="0.05"/>
<path d="M1336 -72.7271H1214.54V48.7277H1336V-72.7271Z" stroke="white" stroke-opacity="0.05"/>
<path d="M121.455 48.7305H0V170.185H121.455V48.7305Z" stroke="white" stroke-opacity="0.05"/>
<path d="M242.91 48.7305H121.456V170.185H242.91V48.7305Z" stroke="white" stroke-opacity="0.05"/>
<path d="M364.363 48.7305H242.909V170.185H364.363V48.7305Z" stroke="white" stroke-opacity="0.05"/>
<path d="M485.82 48.7305H364.365V170.185H485.82V48.7305Z" stroke="white" stroke-opacity="0.05"/>
<path d="M607.273 48.7305H485.818V170.185H607.273V48.7305Z" stroke="white" stroke-opacity="0.05"/>
<path d="M728.727 48.7305H607.272V170.185H728.727V48.7305Z" stroke="white" stroke-opacity="0.05"/>
<path d="M850.182 48.7305H728.728V170.185H850.182V48.7305Z" stroke="white" stroke-opacity="0.05"/>
<path d="M971.636 48.7305H850.181V170.185H971.636V48.7305Z" stroke="white" stroke-opacity="0.05"/>
<path d="M1093.09 48.7305H971.638V170.185H1093.09V48.7305Z" stroke="white" stroke-opacity="0.05"/>
<path d="M1214.55 48.7305H1093.09V170.185H1214.55V48.7305Z" stroke="white" stroke-opacity="0.05"/>
<path d="M1336 48.7305H1214.54V170.185H1336V48.7305Z" stroke="white" stroke-opacity="0.05"/>
<path d="M121.455 170.179H0V291.633H121.455V170.179Z" stroke="white" stroke-opacity="0.05"/>
<path d="M242.908 170.179H121.454V291.633H242.908V170.179Z" stroke="white" stroke-opacity="0.05"/>
<path d="M364.363 170.179H242.908V291.633H364.363V170.179Z" stroke="white" stroke-opacity="0.05"/>
<path d="M485.82 170.179H364.365V291.633H485.82V170.179Z" stroke="white" stroke-opacity="0.05"/>
<path d="M607.274 170.179H485.819V291.633H607.274V170.179Z" stroke="white" stroke-opacity="0.05"/>
<path d="M728.727 170.179H607.272V291.633H728.727V170.179Z" stroke="white" stroke-opacity="0.05"/>
<path d="M850.181 170.179H728.726V291.633H850.181V170.179Z" stroke="white" stroke-opacity="0.05"/>
<path d="M971.636 170.179H850.181V291.633H971.636V170.179Z" stroke="white" stroke-opacity="0.05"/>
<path d="M1093.09 170.179H971.638V291.633H1093.09V170.179Z" stroke="white" stroke-opacity="0.05"/>
<path d="M1214.55 170.179H1093.09V291.633H1214.55V170.179Z" stroke="white" stroke-opacity="0.05"/>
<path d="M1336 170.179H1214.55V291.633H1336V170.179Z" stroke="white" stroke-opacity="0.05"/>
<path d="M121.455 291.633H0V413.088H121.455V291.633Z" stroke="white" stroke-opacity="0.05"/>
<path d="M242.908 291.633H121.454V413.088H242.908V291.633Z" stroke="white" stroke-opacity="0.05"/>
<path d="M364.363 291.633H242.908V413.088H364.363V291.633Z" stroke="white" stroke-opacity="0.05"/>
<path d="M485.82 291.633H364.365V413.088H485.82V291.633Z" stroke="white" stroke-opacity="0.05"/>
<path d="M607.274 291.633H485.819V413.088H607.274V291.633Z" stroke="white" stroke-opacity="0.05"/>
<path d="M728.727 291.633H607.272V413.088H728.727V291.633Z" stroke="white" stroke-opacity="0.05"/>
<path d="M850.181 291.633H728.726V413.088H850.181V291.633Z" stroke="white" stroke-opacity="0.05"/>
<path d="M971.636 291.633H850.181V413.088H971.636V291.633Z" stroke="white" stroke-opacity="0.05"/>
<path d="M1093.09 291.633H971.638V413.088H1093.09V291.633Z" stroke="white" stroke-opacity="0.05"/>
<path d="M1214.55 291.633H1093.09V413.088H1214.55V291.633Z" stroke="white" stroke-opacity="0.05"/>
<path d="M1336 291.633H1214.55V413.088H1336V291.633Z" stroke="white" stroke-opacity="0.05"/>
<path d="M121.455 413.09H0V534.545H121.455V413.09Z" stroke="white" stroke-opacity="0.05"/>
<path d="M242.908 413.09H121.454V534.545H242.908V413.09Z" stroke="white" stroke-opacity="0.05"/>
<path d="M364.363 413.09H242.908V534.545H364.363V413.09Z" stroke="white" stroke-opacity="0.05"/>
<path d="M485.82 413.09H364.365V534.545H485.82V413.09Z" stroke="white" stroke-opacity="0.05"/>
<path d="M607.274 413.09H485.819V534.545H607.274V413.09Z" stroke="white" stroke-opacity="0.05"/>
<path d="M728.727 413.09H607.272V534.545H728.727V413.09Z" stroke="white" stroke-opacity="0.05"/>
<path d="M850.181 413.09H728.726V534.545H850.181V413.09Z" stroke="white" stroke-opacity="0.05"/>
<path d="M971.636 413.09H850.181V534.545H971.636V413.09Z" stroke="white" stroke-opacity="0.05"/>
<path d="M1093.09 413.09H971.638V534.545H1093.09V413.09Z" stroke="white" stroke-opacity="0.05"/>
<path d="M1214.55 413.09H1093.09V534.545H1214.55V413.09Z" stroke="white" stroke-opacity="0.05"/>
<path d="M1336 413.09H1214.55V534.545H1336V413.09Z" stroke="white" stroke-opacity="0.05"/>
<path d="M121.455 534.547H0V656.002H121.455V534.547Z" stroke="white" stroke-opacity="0.05"/>
<path d="M242.908 534.547H121.454V656.002H242.908V534.547Z" stroke="white" stroke-opacity="0.05"/>
<path d="M364.363 534.547H242.908V656.002H364.363V534.547Z" stroke="white" stroke-opacity="0.05"/>
<path d="M485.82 534.547H364.365V656.002H485.82V534.547Z" stroke="white" stroke-opacity="0.05"/>
<path d="M607.274 534.547H485.819V656.002H607.274V534.547Z" stroke="white" stroke-opacity="0.05"/>
<path d="M728.727 534.547H607.272V656.002H728.727V534.547Z" stroke="white" stroke-opacity="0.05"/>
<path d="M850.181 534.547H728.726V656.002H850.181V534.547Z" stroke="white" stroke-opacity="0.05"/>
<path d="M971.636 534.547H850.181V656.002H971.636V534.547Z" stroke="white" stroke-opacity="0.05"/>
<path d="M1093.09 534.547H971.638V656.002H1093.09V534.547Z" stroke="white" stroke-opacity="0.05"/>
<path d="M1214.55 534.547H1093.09V656.002H1214.55V534.547Z" stroke="white" stroke-opacity="0.05"/>
<path d="M1336 534.547H1214.55V656.002H1336V534.547Z" stroke="white" stroke-opacity="0.05"/>
</mask>
<g mask="url(#mask0_1519_43968)">
<g filter="url(#filter0_f_1519_43968)">
<circle cx="668.002" cy="-12.001" r="545.852" fill="url(#paint0_linear_1519_43968)"/>
<circle cx="668.002" cy="-12.001" r="545.352" stroke="white" stroke-opacity="0.05"/>
</g>
</g>
<defs>
<filter id="filter0_f_1519_43968" x="22.1497" y="-657.854" width="1291.7" height="1291.71" filterUnits="userSpaceOnUse" color-interpolation-filters="sRGB">
<feFlood flood-opacity="0" result="BackgroundImageFix"/>
<feBlend mode="normal" in="SourceGraphic" in2="BackgroundImageFix" result="shape"/>
<feGaussianBlur stdDeviation="50" result="effect1_foregroundBlur_1519_43968"/>
</filter>
<linearGradient id="paint0_linear_1519_43968" x1="1212.3" y1="10.267" x2="123.705" y2="10.267" gradientUnits="userSpaceOnUse">
<stop stop-color="#126AD2"/>
<stop offset="1" stop-color="#5DEFD7"/>
</linearGradient>
</defs>
</svg>
