<svg width="1336" height="644" viewBox="0 0 1336 644" fill="none" xmlns="http://www.w3.org/2000/svg">
<g opacity="0.5" clip-path="url(#clip0_1473_21975)">
<rect width="1336" height="892" fill="white"/>
<path d="M0 37.1667H24.7902C49.432 37.1667 99.0125 37.1667 148.444 46.0867C197.876 55.0067 247.457 72.8467 296.889 75.82C346.321 78.7933 395.901 66.9 445.333 59.4667C494.765 52.0333 544.346 49.06 593.778 47.5733C643.21 46.0867 692.79 46.0867 742.222 47.5733C791.654 49.06 841.235 52.0333 890.667 50.5467C940.099 49.06 989.679 43.1133 1039.11 50.5467C1088.54 57.98 1138.12 78.7933 1187.56 78.7933C1236.99 78.7933 1286.57 57.98 1311.21 47.5733L1336 37.1667V0H1311.21C1286.57 0 1236.99 0 1187.56 0C1138.12 0 1088.54 0 1039.11 0C989.679 0 940.099 0 890.667 0C841.235 0 791.654 0 742.222 0C692.79 0 643.21 0 593.778 0C544.346 0 494.765 0 445.333 0C395.901 0 346.321 0 296.889 0C247.457 0 197.876 0 148.444 0C99.0125 0 49.432 0 24.7902 0H0V37.1667Z" fill="white"/>
<path d="M0 170.967L24.7902 181.373C49.432 191.78 99.0125 212.593 148.444 227.46C197.876 242.327 247.457 251.247 296.889 258.68C346.321 266.113 395.901 272.06 445.333 267.6C494.765 263.14 544.346 248.273 593.778 248.273C643.21 248.273 692.79 263.14 742.222 266.113C791.654 269.087 841.235 260.167 890.667 251.247C940.099 242.327 989.679 233.407 1039.11 225.973C1088.54 218.54 1138.12 212.593 1187.56 206.647C1236.99 200.7 1286.57 194.753 1311.21 191.78L1336 188.807V34.1934L1311.21 44.6C1286.57 55.0067 1236.99 75.82 1187.56 75.82C1138.12 75.82 1088.54 55.0067 1039.11 47.5734C989.679 40.14 940.099 46.0867 890.667 47.5734C841.235 49.06 791.654 46.0867 742.222 44.6C692.79 43.1134 643.21 43.1134 593.778 44.6C544.346 46.0867 494.765 49.06 445.333 56.4934C395.901 63.9267 346.321 75.82 296.889 72.8467C247.457 69.8734 197.876 52.0334 148.444 43.1134C99.0125 34.1934 49.432 34.1934 24.7902 34.1934H0V170.967Z" fill="#EFFAFF"/>
<path d="M0 224.486L24.7902 246.786C49.432 269.087 99.0125 313.686 148.444 325.58C197.876 337.473 247.457 316.66 296.889 310.713C346.321 304.766 395.901 313.686 445.333 324.093C494.765 334.5 544.346 346.393 593.778 361.26C643.21 376.126 692.79 393.966 742.222 389.507C791.654 385.046 841.235 358.286 890.667 334.5C940.099 310.713 989.679 289.9 1039.11 285.44C1088.54 280.98 1138.12 292.873 1187.56 291.386C1236.99 289.9 1286.57 275.033 1311.21 267.6L1336 260.166V185.833L1311.21 188.806C1286.57 191.78 1236.99 197.726 1187.56 203.673C1138.12 209.62 1088.54 215.566 1039.11 223C989.679 230.433 940.099 239.353 890.667 248.273C841.235 257.193 791.654 266.113 742.222 263.14C692.79 260.166 643.21 245.3 593.778 245.3C544.346 245.3 494.765 260.166 445.333 264.626C395.901 269.087 346.321 263.14 296.889 255.706C247.457 248.273 197.876 239.353 148.444 224.486C99.0125 209.62 49.432 188.806 24.7902 178.4L0 167.993V224.486Z" fill="#E2F7FF"/>
<path d="M0 286.927L24.7902 307.74C49.432 328.554 99.0125 370.18 148.444 388.02C197.876 405.86 247.457 399.914 296.889 398.427C346.321 396.94 395.901 399.914 445.333 405.86C494.765 411.807 544.346 420.727 593.778 431.134C643.21 441.54 692.79 453.434 742.222 451.947C791.654 450.46 841.235 435.594 890.667 408.834C940.099 382.074 989.679 343.42 1039.11 338.96C1088.54 334.5 1138.12 364.234 1187.56 365.72C1236.99 367.207 1286.57 340.447 1311.21 327.067L1336 313.687V257.194L1311.21 264.627C1286.57 272.06 1236.99 286.927 1187.56 288.414C1138.12 289.9 1088.54 278.007 1039.11 282.467C989.679 286.927 940.099 307.74 890.667 331.527C841.235 355.314 791.654 382.074 742.222 386.534C692.79 390.994 643.21 373.154 593.778 358.287C544.346 343.42 494.765 331.527 445.333 321.12C395.901 310.714 346.321 301.794 296.889 307.74C247.457 313.687 197.876 334.5 148.444 322.607C99.0125 310.714 49.432 266.114 24.7902 243.814L0 221.514V286.927Z" fill="#D4F3FF"/>
<path d="M0 474.246L24.7902 484.653C49.432 495.06 99.0125 515.873 148.444 536.686C197.876 557.5 247.457 578.313 296.889 579.8C346.321 581.286 395.901 563.446 445.333 548.58C494.765 533.713 544.346 521.82 593.778 526.28C643.21 530.74 692.79 551.553 742.222 550.066C791.654 548.58 841.235 524.793 890.667 514.386C940.099 503.98 989.679 506.953 1039.11 515.873C1088.54 524.793 1138.12 539.66 1187.56 523.306C1236.99 506.953 1286.57 459.38 1311.21 435.593L1336 411.806V310.713L1311.21 324.093C1286.57 337.473 1236.99 364.233 1187.56 362.746C1138.12 361.26 1088.54 331.526 1039.11 335.986C989.679 340.446 940.099 379.1 890.667 405.86C841.235 432.62 791.654 447.486 742.222 448.973C692.79 450.46 643.21 438.566 593.778 428.16C544.346 417.753 494.765 408.833 445.333 402.886C395.901 396.94 346.321 393.966 296.889 395.453C247.457 396.94 197.876 402.886 148.444 385.046C99.0125 367.206 49.432 325.58 24.7902 304.766L0 283.953V474.246Z" fill="#C4EFFF"/>
<path d="M0 804.286L24.7902 792.393C49.432 780.5 99.0125 756.713 148.444 758.2C197.876 759.686 247.457 786.446 296.889 804.286C346.321 822.126 395.901 831.046 445.333 825.1C494.765 819.153 544.346 798.34 593.778 790.906C643.21 783.473 692.79 789.42 742.222 798.34C791.654 807.26 841.235 819.153 890.667 813.206C940.099 807.26 989.679 783.473 1039.11 771.58C1088.54 759.686 1138.12 759.686 1187.56 759.686C1236.99 759.686 1286.57 759.686 1311.21 759.686H1336V408.833L1311.21 432.62C1286.57 456.406 1236.99 503.98 1187.56 520.333C1138.12 536.686 1088.54 521.82 1039.11 512.9C989.679 503.98 940.099 501.006 890.667 511.413C841.235 521.82 791.654 545.606 742.222 547.093C692.79 548.58 643.21 527.766 593.778 523.306C544.346 518.846 494.765 530.74 445.333 545.606C395.901 560.473 346.321 578.313 296.889 576.826C247.457 575.34 197.876 554.526 148.444 533.713C99.0125 512.9 49.432 492.086 24.7902 481.68L0 471.273V804.286Z" fill="#B0EBFF"/>
</g>
<defs>
<clipPath id="clip0_1473_21975">
<rect width="1336" height="892" fill="white"/>
</clipPath>
</defs>
</svg>
