<svg width="1400" height="200" viewBox="0 0 1400 200" fill="none" xmlns="http://www.w3.org/2000/svg">
<g clip-path="url(#clip0_1548_24432)">
<path d="M1400 200H0V0H1400V200Z" fill="#EBF9FF"/>
<path d="M0 60H38.8889C77.7778 60 155.556 60 233.333 65.5C311.111 71 388.889 82 466.667 86C544.444 90 622.222 87 700 83.8C777.778 80.7 855.556 77.3 933.333 78.2C1011.11 79 1088.89 84 1166.67 84.7C1244.44 85.3 1322.22 81.7 1361.11 79.8L1400 78V200H1361.11C1322.22 200 1244.44 200 1166.67 200C1088.89 200 1011.11 200 933.333 200C855.556 200 777.778 200 700 200C622.222 200 544.444 200 466.667 200C388.889 200 311.111 200 233.333 200C155.556 200 77.7778 200 38.8889 200H0V60Z" fill="#A9E7FF"/>
<path d="M0 105L38.8889 104.3C77.7778 103.7 155.556 102.3 233.333 102.7C311.111 103 388.889 105 466.667 105.5C544.444 106 622.222 105 700 102.2C777.778 99.3 855.556 94.7 933.333 97.2C1011.11 99.7 1088.89 109.3 1166.67 109.3C1244.44 109.3 1322.22 99.7 1361.11 94.8L1400 90V200H1361.11C1322.22 200 1244.44 200 1166.67 200C1088.89 200 1011.11 200 933.333 200C855.556 200 777.778 200 700 200C622.222 200 544.444 200 466.667 200C388.889 200 311.111 200 233.333 200C155.556 200 77.7778 200 38.8889 200H0V105Z" fill="#C5EEFF"/>
<path d="M0 149L38.8889 147.2C77.7778 145.3 155.556 141.7 233.333 138.8C311.111 136 388.889 134 466.667 135.2C544.444 136.3 622.222 140.7 700 142.2C777.778 143.7 855.556 142.3 933.333 141.5C1011.11 140.7 1088.89 140.3 1166.67 138.7C1244.44 137 1322.22 134 1361.11 132.5L1400 131V200H1361.11C1322.22 200 1244.44 200 1166.67 200C1088.89 200 1011.11 200 933.333 200C855.556 200 777.778 200 700 200C622.222 200 544.444 200 466.667 200C388.889 200 311.111 200 233.333 200C155.556 200 77.7778 200 38.8889 200H0V149Z" fill="#DFF5FF"/>
<path d="M0 177L38.8889 174.2C77.7778 171.3 155.556 165.7 233.333 165.7C311.111 165.7 388.889 171.3 466.667 172.5C544.444 173.7 622.222 170.3 700 168.2C777.778 166 855.556 165 933.333 164.5C1011.11 164 1088.89 164 1166.67 166.3C1244.44 168.7 1322.22 173.3 1361.11 175.7L1400 178V200H1361.11C1322.22 200 1244.44 200 1166.67 200C1088.89 200 1011.11 200 933.333 200C855.556 200 777.778 200 700 200C622.222 200 544.444 200 466.667 200C388.889 200 311.111 200 233.333 200C155.556 200 77.7778 200 38.8889 200H0V177Z" fill="white"/>
</g>
<defs>
<clipPath id="clip0_1548_24432">
<rect width="1400" height="200" fill="white" transform="matrix(1 0 0 -1 0 200)"/>
</clipPath>
</defs>
</svg>
