<svg width="1400" height="202" viewBox="0 0 1400 202" fill="none" xmlns="http://www.w3.org/2000/svg">
<g clip-path="url(#clip0_1548_24114)">
<path d="M1400 0H0V200H1400V0Z" fill="white"/>
<path d="M0 78L38.8889 79.3C77.7778 80.7 155.556 83.3 233.333 85.2C311.111 87 388.889 88 466.667 85.2C544.444 82.3 622.222 75.7 700 74.8C777.778 74 855.556 79 933.333 85C1011.11 91 1088.89 98 1166.67 93.7C1244.44 89.3 1322.22 73.7 1361.11 65.8L1400 58V202H1361.11C1322.22 202 1244.44 202 1166.67 202C1088.89 202 1011.11 202 933.333 202C855.556 202 777.778 202 700 202C622.222 202 544.444 202 466.667 202C388.889 202 311.111 202 233.333 202C155.556 202 77.7778 202 38.8889 202H0V78Z" fill="#A9E7FF"/>
<path d="M0 113L38.8889 109.3C77.7778 105.7 155.556 98.3 233.333 99.3C311.111 100.3 388.889 109.7 466.667 116.5C544.444 123.3 622.222 127.7 700 128C777.778 128.3 855.556 124.7 933.333 119.5C1011.11 114.3 1088.89 107.7 1166.67 108C1244.44 108.3 1322.22 115.7 1361.11 119.3L1400 123V202H1361.11C1322.22 202 1244.44 202 1166.67 202C1088.89 202 1011.11 202 933.333 202C855.556 202 777.778 202 700 202C622.222 202 544.444 202 466.667 202C388.889 202 311.111 202 233.333 202C155.556 202 77.7778 202 38.8889 202H0V113Z" fill="#C5EEFF"/>
<path d="M0 122L38.8889 125C77.7778 128 155.556 134 233.333 138.2C311.111 142.3 388.889 144.7 466.667 145C544.444 145.3 622.222 143.7 700 142.8C777.778 142 855.556 142 933.333 140C1011.11 138 1088.89 134 1166.67 130.5C1244.44 127 1322.22 124 1361.11 122.5L1400 121V202H1361.11C1322.22 202 1244.44 202 1166.67 202C1088.89 202 1011.11 202 933.333 202C855.556 202 777.778 202 700 202C622.222 202 544.444 202 466.667 202C388.889 202 311.111 202 233.333 202C155.556 202 77.7778 202 38.8889 202H0V122Z" fill="#DFF5FF"/>
<path d="M0 166L38.8889 166.2C77.7778 166.3 155.556 166.7 233.333 167.7C311.111 168.7 388.889 170.3 466.667 172C544.444 173.7 622.222 175.3 700 172C777.778 168.7 855.556 160.3 933.333 158C1011.11 155.7 1088.89 159.3 1166.67 162.2C1244.44 165 1322.22 167 1361.11 168L1400 169V202H1361.11C1322.22 202 1244.44 202 1166.67 202C1088.89 202 1011.11 202 933.333 202C855.556 202 777.778 202 700 202C622.222 202 544.444 202 466.667 202C388.889 202 311.111 202 233.333 202C155.556 202 77.7778 202 38.8889 202H0V166Z" fill="#EBF9FF"/>
</g>
<defs>
<clipPath id="clip0_1548_24114">
<rect width="1400" height="202" fill="white"/>
</clipPath>
</defs>
</svg>
